<mxfile host="app.diagrams.net" modified="2024-05-27T23:24:14.097Z" agent="Mozilla/5.0 (Windows NT 10.0; Win64; x64) AppleWebKit/537.36 (KHTML, like Gecko) Chrome/124.0.0.0 Safari/537.36 Edg/124.0.0.0" version="24.4.8" etag="LlnbYK-qN9b1Ge7wXw4C" type="github">
  <diagram name="Page-1" id="zlZCmaKOIGGVb370uwEp">
    <mxGraphModel>
      <root>
        <mxCell id="0" />
        <mxCell id="1" parent="0" />
      </root>
    </mxGraphModel>
  </diagram>
</mxfile>
